<svg fill="#FFFFFF" xmlns="http://www.w3.org/2000/svg" xmlns:xlink="http://www.w3.org/1999/xlink" version="1.1" x="0px" y="0px" viewBox="0 0 100 100" style="enable-background:new 0 0 100 100;" xml:space="preserve"><g><path d="M88.8,19.6c-1.6-4.4-9.8-7.6-17.9-7.1c-7.9,0.5-13.4,4.3-14.9,10.6c-0.3,1.2-0.6,2.3-0.8,3.3c-0.4,1.6-0.7,3-1.1,4.4   c-0.8,3.5-2.5,12.3-2,18.2c0.3,3.2,0.6,9.6,0.8,15.3c-3.1-0.4-4.8-3.5-5.6-6.9c0.2-1.6,0-3.7-0.9-5.2c-0.1-0.7-0.1-1.3-0.2-1.9   l0-0.2c-0.2-1.8,0-7.2,0.2-12.9c0.3-8.2,0.6-17.6,0-20.2c-0.3-1.5-1.1-2.5-2.3-2.8c-0.1-3.3-1-5.4-1.5-5.5c-0.6,0-2.7,2.4-3.3,5.1   C39,15.3,39,16,39.6,17c-0.1,0.4-0.2,0.7-0.2,1.1c-0.1,1.7-1.2,8.6-2.2,15.2c-0.8,5.1-1.6,10.3-2.1,13.7c-0.4-0.1-0.7-0.3-1-0.3   c0,0,0,0,0,0c-1.1-0.4-2.1-0.7-4.1-0.8c-3.1-0.2-5.2,2-6.1,3.3c-3.3-0.8-6.5,0.2-9.2,2.8c-5.7,0.8-5.9,6.3-5.7,8.6   c0.2,3,2,9.5,5.2,19.9C17,89.1,20.9,92,29.6,92C42,92,49,84.1,51.3,81.5l0.1-0.1c0.3-0.3,0.6-0.7,0.9-1.1c0.3-0.4,0.7-0.8,1.1-1.2   c0.2,1.6,0.7,3.2,1.5,4.2c0,0.1,0,0.2,0,0.4c0.4,2.7,2.2,5.4,2.8,5.7c0.5-0.4,1.4-2.9,1.6-5.6c0-0.1,0-0.2,0-0.3   c1.4-1.4,2.1-4.3,2.2-9.1c0-0.5,0-1,0-1.5c1.1-0.5,2.7-1.1,4.5-1.9c1.7-0.7,3.3-1.4,4.7-2c1.7,4.5,3.3,8.5,4.1,10   c2,3.7,3.6,5.5,5.3,5.9c0.1,0,0.2,0.1,0.4,0.1c0.1,0.1,0.1,0.2,0.2,0.3c1.4,2.3,4.1,4.2,4.8,4.2c0.3-0.6,0.2-3.2-0.7-5.8   c-0.2-0.4-0.3-0.8-0.5-1.2c0.6-1.7-0.1-4-1.3-6.9c-0.7-1.8-2.2-5.9-3.9-10.3c0.9-0.5,1.7-0.8,2.3-1.2c0,0,0,0,0,0   c2.6-0.7,4.1-2.1,4.3-3.3c-0.2-0.6-2.7-1.7-5.2-1.7c-1.2-0.8-2.6-1.1-4-1.1c-1.6-4.3-2.9-7.9-3.1-8.6c-0.2-0.7-0.1-1.3,0.1-1.6   c0.3-0.2,0.8-0.2,1.4,0.1c1.4,0.6,3.7,0.9,5.6-0.1c1.2-0.6,2-1.7,2.5-3c1.4,0.4,3,0.1,4.3-0.7c1.2-0.8,3.3-2.9,3.3-7.8   C90.5,27.9,90,22.9,88.8,19.6z M86.5,43.2c-1.2,0.8-2.6,0.9-3.8,0.4c-0.2-0.1-0.4-0.1-0.5,0c-0.2,0.1-0.3,0.2-0.3,0.4   c-0.3,1.4-0.9,2.3-2,2.9c-1.4,0.7-3.3,0.6-4.5,0c-1.5-0.7-2.3-0.2-2.7,0.1c-0.7,0.6-0.9,1.7-0.5,2.9c0.6,1.8,8.2,22.1,9.7,26.1   c0.8,2,1.2,3.5,1.3,4.5c-0.9-1.3-1.9-1.7-3-1.2c-1.2,0.5-0.9,2.4-0.4,4.1c-1.4-0.9-2.9-3.2-3.9-5.1c-1-1.8-3.2-7.7-5.4-13.4   c-2.4-6.2-4.4-11.5-5.2-12.7c-0.6-1-1.5-1.5-2.4-1.5c-0.2,0-0.4,0-0.6,0.1c-1,0.2-1.8,1.2-1.9,2.2c-0.1,0.7-0.1,2.9-0.1,6.2   c0,4.1,0,9.7-0.1,15.1c-0.1,3.1-0.4,5.4-1,6.9C59,79,58.2,77.9,56.8,78c-1.1,0-1.6,1.3-1.8,2.7c-0.4-1.4-0.6-3.5-0.6-6.1   c0-2.9-0.5-19.9-1.1-25.8c-0.5-5.7,1.2-14.3,2-17.8c0.3-1.4,0.7-2.8,1.1-4.4c0.2-1,0.5-2.1,0.8-3.3c2-8.1,10.3-9.5,13.8-9.7   c7.5-0.4,15.3,2.5,16.7,6.3c1.1,3.1,1.7,8.1,1.7,16.4C89.2,39.7,88.3,42.1,86.5,43.2z M61.7,62.9c0-1.3,0-2.6,0-3.7   c0-3,0-5.4,0.1-6c0.1-0.6,0.5-1,1-1.2c0.6-0.1,1.2,0.2,1.6,0.9c0.5,0.7,1.8,3.9,3.2,7.7c-1.1,0.4-2.1,0.8-3.2,1.2   C63.5,62.2,62.6,62.6,61.7,62.9z M38.4,33.4c1.1-7,2.1-13.6,2.2-15.3c0.1-1.5,1.5-2.8,2.7-2.9c1.2-0.1,1.7,1,1.9,1.9   c0.5,2.5,0.2,11.8-0.1,19.9c-0.2,6-0.4,11.1-0.2,13l0,0.2c0,0.1,0,0.2,0,0.4c-0.1,0-0.1-0.1-0.2-0.1c-1.4-0.6-5.7-2.2-8.5-3.2   C36.7,44,37.6,38.7,38.4,33.4z M51.4,79.6c-0.3,0.4-0.6,0.7-0.9,1l-0.1,0.1c-2.2,2.5-8.9,10.1-20.8,10.1c-8.2,0-11.5-2.5-14.1-10.8   c-3.3-10.3-4.9-16.7-5.2-19.6c-0.2-2.5,0.2-6.8,4.8-7.3c0.1,0,0.3-0.1,0.4-0.2c1.9-1.9,4-2.9,6.2-2.9c0.8,0,1.5,0.1,2.3,0.3   c0.3,0.1,0.5,0,0.7-0.3c0.7-1,2.5-3.2,5.2-3.1c1.6,0.1,2.5,0.3,3.5,0.7l0,0l7.3,2.7l0,0c1.5,0.6,2.9,1.1,3.6,1.4   c1.3,0.5,2,3.5,1.6,5.6c-0.4,2.1-2.5,13.8-3,16.1c0,0,0,0,0,0c-0.3-0.5-0.7-0.8-1.3-1c-2.7-0.6-3.4,1.3-3.6,3.2   c-0.6-0.6-1-1.7-1-3.8c0.1-0.8,0.1-1.5,0.1-2.3c0.1-1.1,0.1-2.2,0.2-2.9c0.2-2,0.4-3.4,0.5-4.6c0.2-1.3,0.3-2.2,0.4-3.5   c0.2-3.1-2.6-5.5-4.2-6.3c-1.3-0.7-3.1-1.2-3.9-1.4c-0.2-0.1-0.3-0.1-0.4-0.1c-0.3-0.1-0.7,0.1-0.8,0.5c-0.1,0.3,0.1,0.7,0.5,0.8   c0,0,2.5,0.6,4,1.4c1.3,0.7,3.7,2.6,3.5,5.1c-0.1,1.2-0.2,2.1-0.4,3.4c-0.1,1-0.3,2.2-0.4,3.8c0,0.2-0.1,0.5-0.1,0.8   c-0.1,0.7-0.1,1.5-0.2,2.4c-0.1,1.1-0.1,2.1-0.1,2.9c-0.1,1-0.1,1.9-0.2,2.6c-0.4-0.4-1.1-0.5-2-0.2c-1.2,0.4-1.8,1.9-1.9,3.4   c-1.6-0.8-1.9-2.9-2-5c0-0.7,0-1.4,0-2.2c0-1.8,0-3.7-0.3-5.5c-0.1-0.3-0.1-0.6-0.2-1c-0.4-2.4-0.8-5.4-2.4-7.2   c-1.1-1.3-2.3-2.2-3-2.6c-0.3-0.2-0.7-0.1-0.9,0.2c-0.2,0.3-0.1,0.7,0.2,0.9c0.6,0.4,1.8,1.2,2.8,2.4c1.4,1.6,1.8,4.4,2.2,6.6   c0.1,0.3,0.1,0.6,0.2,0.9c0,0.3,0,0.7,0.1,1.2c0.1,1.2,0.3,3.6,0.1,5.4c-0.4-1.1-1.8-1-2.7-0.5c-0.7,0.4-1.3,0.9-1.1,2.1   c0,0.2,0.1,0.4,0.2,0.7c-0.6-0.4-1-1-1.2-1.9c-0.1-0.5-0.2-1.1-0.3-1.6c-0.1-0.4-0.1-0.8-0.2-1.2c-0.7-3.8-1.7-7.4-4.6-8.4   c-0.4-0.1-0.8-0.2-1.2-0.2c-0.3,0-0.6,0.2-0.7,0.6c0,0.3,0.2,0.6,0.6,0.7c0.3,0,0.6,0.1,0.9,0.2c2.3,0.8,3.2,4,3.8,7.4   c0.1,0.4,0.1,0.8,0.2,1.2c0.1,0.6,0.2,1.1,0.3,1.6c0.3,1.7,1.3,2.5,2.1,2.8c0.3,0.1,0.7,0.2,1,0.3c0.6,1.3,1.5,2.6,2.3,3.1   c0.7-1.2,0.9-2.6,0.9-3.9c0.3,1.7,1,3.6,3.1,4.3c0,0.2,0,0.3,0,0.5c0.4,2.7,1.2,3.9,1.8,4.2c0.5-0.3,2.4-2.3,2.6-4.8   c0.1-0.8,0.1-1.4,0.1-2c0.1-0.3,0.3-0.6,0.3-1c0.3,0.5,0.7,1,1.3,1.3c0,0,0,0.1,0,0.1c-0.2,2.7,0.4,5.7,0.9,6.1   c0.6-0.3,2.9-2,3.8-4.6c0.4-1.1,0.6-2,0.7-2.9c0.4-0.6,0.7-1.4,0.9-2.2c0.4-1.9,1.9-9.8,2.7-14c1.1,2.9,3,5.3,6.1,5.6   c0.1,4.3,0.2,7.9,0.2,9.1c0,0.7,0,1.8,0.1,2.9C52.5,78.2,51.9,78.9,51.4,79.6z M65.7,69.8c-1.6,0.7-3,1.2-4,1.7   c0-2.5,0.1-5,0.1-7.3c1.1-0.4,2.2-0.8,3.2-1.2c1-0.4,2-0.8,3.1-1.2c0.5,1.2,0.9,2.4,1.4,3.6c0.3,0.8,0.6,1.6,0.9,2.5   C68.7,68.6,67,69.3,65.7,69.8z M81.8,62.4c-0.4,0.4-1.5,1-3,1.7c-0.6-1.6-1.2-3.2-1.8-4.8C78.9,59.4,80.5,60.2,81.8,62.4z"></path></g></svg>