<svg fill="#FFFFFF" xmlns="http://www.w3.org/2000/svg" xmlns:xlink="http://www.w3.org/1999/xlink" version="1.1" x="0px" y="0px" viewBox="0 0 64 64" enable-background="new 0 0 64 64" xml:space="preserve"><g><g><g><path d="M52,23.5c-0.265,0-0.52-0.105-0.707-0.293l-5.857-5.857C44.511,16.428,44,15.198,44,13.889s0.511-2.539,1.437-3.462     c0.917-0.923,2.146-1.434,3.458-1.434c1.146,0,2.231,0.39,3.105,1.105c0.875-0.716,1.961-1.105,3.106-1.105     c1.312,0,2.541,0.511,3.462,1.437c0.923,0.92,1.433,2.149,1.433,3.459s-0.51,2.539-1.436,3.462l-0.353,0.347l-5.506,5.51     C52.52,23.395,52.266,23.5,52,23.5z M48.895,10.993c-0.775,0-1.501,0.301-2.043,0.847C46.302,12.388,46,13.114,46,13.889     s0.302,1.501,0.849,2.046L52,21.086l5.158-5.156c0.541-0.54,0.843-1.267,0.843-2.041s-0.302-1.501-0.848-2.046     c-1.093-1.098-3.005-1.096-4.104,0l-0.345,0.343c-0.391,0.389-1.02,0.389-1.41,0l-0.344-0.342     C50.401,11.295,49.671,10.993,48.895,10.993z"></path></g><g><g><path d="M63,35.5c-0.553,0-1-0.447-1-1c0-0.552-0.448-1-1-1c-0.553,0-1-0.447-1-1s0.447-1,1-1c1.654,0,3,1.346,3,3      C64,35.053,63.553,35.5,63,35.5z"></path></g><g><path d="M61,42.5c-0.553,0-1-0.447-1-1s0.447-1,1-1c0.552,0,1-0.448,1-1c0-0.553,0.447-1,1-1s1,0.447,1,1      C64,41.154,62.654,42.5,61,42.5z"></path></g><g><path d="M63,40.5c-0.553,0-1-0.447-1-1v-5c0-0.553,0.447-1,1-1s1,0.447,1,1v5C64,40.053,63.553,40.5,63,40.5z"></path></g><g><path d="M61,33.5h-2c-0.553,0-1-0.447-1-1s0.447-1,1-1h2c0.553,0,1,0.447,1,1S61.553,33.5,61,33.5z"></path></g><g><path d="M61,42.5h-6c-0.553,0-1-0.447-1-1s0.447-1,1-1h6c0.553,0,1,0.447,1,1S61.553,42.5,61,42.5z"></path></g><g><path d="M59,33.5c-0.553,0-1-0.447-1-1V29c0-0.553,0.447-1,1-1s1,0.447,1,1v3.5C60,33.053,59.553,33.5,59,33.5z"></path></g><g><path d="M55.001,33.5c-0.092,0-0.184-0.013-0.275-0.038c-0.531-0.152-0.839-0.706-0.688-1.236l1-3.5      c0.152-0.532,0.711-0.833,1.236-0.688c0.531,0.152,0.839,0.706,0.688,1.236l-1,3.5C55.836,33.214,55.436,33.5,55.001,33.5z"></path></g><g><path d="M56,30c-0.091,0-0.184-0.013-0.275-0.039c-0.531-0.152-0.838-0.706-0.686-1.236c0.174-0.608,0.638-2.225,2.461-2.225      c1.379,0,2.5,1.121,2.5,2.5c0,0.553-0.447,1-1,1s-1-0.447-1-1c0-0.275-0.225-0.5-0.5-0.5c-0.184,0-0.316,0-0.539,0.775      C56.835,29.715,56.436,30,56,30z"></path></g><g><path d="M55,42.5c-0.256,0-0.512-0.098-0.707-0.293l-1-1c-0.391-0.391-0.391-1.023,0-1.414s1.023-0.391,1.414,0l1,1      c0.391,0.391,0.391,1.023,0,1.414C55.512,42.402,55.256,42.5,55,42.5z"></path></g><g><path d="M55,33.5h-3c-0.553,0-1-0.447-1-1s0.447-1,1-1h3c0.553,0,1,0.447,1,1S55.553,33.5,55,33.5z"></path></g><g><path d="M54,41.5h-2c-0.553,0-1-0.447-1-1s0.447-1,1-1h2c0.553,0,1,0.447,1,1S54.553,41.5,54,41.5z"></path></g><g><path d="M52,42.5h-4c-0.553,0-1-0.447-1-1v-10c0-0.553,0.447-1,1-1h4c0.553,0,1,0.447,1,1v10C53,42.053,52.553,42.5,52,42.5z       M49,40.5h2v-8h-2V40.5z"></path></g></g><g><path d="M53,61.5c-3.859,0-7-3.141-7-7s3.141-7,7-7s7,3.141,7,7S56.859,61.5,53,61.5z M53,49.5c-2.757,0-5,2.243-5,5s2.243,5,5,5     s5-2.243,5-5S55.757,49.5,53,49.5z"></path></g><g><path d="M53,57.5c-0.553,0-1-0.447-1-1v-4c0-0.553,0.447-1,1-1s1,0.447,1,1v4C54,57.053,53.553,57.5,53,57.5z"></path></g><g><path d="M55,55.5h-4c-0.553,0-1-0.447-1-1s0.447-1,1-1h4c0.553,0,1,0.447,1,1S55.553,55.5,55,55.5z"></path></g><g><g><path d="M27,11.5c-1.654,0-3-1.346-3-3s1.346-3,3-3s3,1.346,3,3S28.654,11.5,27,11.5z M27,7.5c-0.552,0-1,0.448-1,1s0.448,1,1,1      s1-0.448,1-1S27.552,7.5,27,7.5z"></path></g><g><path d="M36,6.5c-1.654,0-3-1.346-3-3s1.346-3,3-3s3,1.346,3,3S37.654,6.5,36,6.5z M36,2.5c-0.552,0-1,0.448-1,1s0.448,1,1,1      s1-0.448,1-1S36.552,2.5,36,2.5z"></path></g><g><path d="M36,16.5c-1.654,0-3-1.346-3-3s1.346-3,3-3s3,1.346,3,3S37.654,16.5,36,16.5z M36,12.5c-0.552,0-1,0.448-1,1      s0.448,1,1,1s1-0.448,1-1S36.552,12.5,36,12.5z"></path></g><g><path d="M34.251,13.529c-0.164,0-0.331-0.04-0.484-0.126l-5.506-3.059c-0.483-0.268-0.657-0.877-0.389-1.359      c0.268-0.482,0.878-0.658,1.359-0.389l5.506,3.059c0.483,0.268,0.657,0.877,0.389,1.359      C34.943,13.344,34.603,13.529,34.251,13.529z"></path></g><g><path d="M28.749,8.529c-0.352,0-0.692-0.186-0.875-0.515c-0.269-0.482-0.095-1.092,0.389-1.359l5.506-3.059      c0.481-0.27,1.091-0.094,1.359,0.389s0.095,1.092-0.389,1.359l-5.506,3.059C29.08,8.489,28.913,8.529,28.749,8.529z"></path></g></g><g><g><path d="M43,27.502c-0.553,0-1-0.447-1-1c0-2.207-1.795-4.002-4.002-4.002c-2.206,0-4.001,1.795-4.001,4.002      c0,0.553-0.447,1-1,1s-1-0.447-1-1c0-3.31,2.692-6.002,6.001-6.002c3.31,0,6.002,2.692,6.002,6.002      C44,27.055,43.553,27.502,43,27.502z"></path></g><g><path d="M38,52.5c-3.309,0-6-2.691-6-6c0-0.553,0.447-1,1-1s1,0.447,1,1c0,2.206,1.794,4,4,4s4-1.794,4-4c0-0.553,0.447-1,1-1      s1,0.447,1,1C44,49.809,41.309,52.5,38,52.5z"></path></g><g><path d="M33,47.5c-0.553,0-1-0.447-1-1v-20c0-0.553,0.447-1,1-1s1,0.447,1,1v20C34,47.053,33.553,47.5,33,47.5z"></path></g><g><path d="M27.999,27.502c-0.553,0-1-0.447-1-1c0-3.31,2.692-6.002,6.001-6.002c0.553,0,1,0.447,1,1s-0.447,1-1,1      c-2.206,0-4.001,1.795-4.001,4.002C28.999,27.055,28.552,27.502,27.999,27.502z"></path></g><g><path d="M33.002,52.5c-3.309,0-6-2.691-6-6c0-0.553,0.447-1,1-1s1,0.447,1,1c0,2.206,1.794,4,4,4c0.553,0,1,0.447,1,1      S33.555,52.5,33.002,52.5z"></path></g><g><path d="M28.002,47.5c-0.553,0-1-0.447-1-1v-20c0-0.553,0.447-1,1-1s1,0.447,1,1v20C29.002,47.053,28.555,47.5,28.002,47.5z"></path></g><g><path d="M43,47.5c-0.553,0-1-0.447-1-1v-20c0-0.553,0.447-1,1-1s1,0.447,1,1v20C44,47.053,43.553,47.5,43,47.5z"></path></g><g><path d="M37,52.5h-4c-0.553,0-1-0.447-1-1s0.447-1,1-1h4c0.553,0,1,0.447,1,1S37.553,52.5,37,52.5z"></path></g><g><path d="M37,22.5h-4c-0.553,0-1-0.447-1-1s0.447-1,1-1h4c0.553,0,1,0.447,1,1S37.553,22.5,37,22.5z"></path></g><g><path d="M27.999,27.5H11c-0.553,0-1-0.447-1-1s0.447-1,1-1h16.999c0.553,0,1,0.447,1,1S28.552,27.5,27.999,27.5z"></path></g><g><path d="M28.002,47.501H11c-0.553,0-1-0.447-1-1s0.447-1,1-1h17.002c0.553,0,1,0.447,1,1S28.555,47.501,28.002,47.501z"></path></g><g><path d="M11,47.501c-6.065,0-11-4.935-11-11.001c0-6.065,4.935-11,11-11c0.553,0,1,0.447,1,1s-0.447,1-1,1c-4.963,0-9,4.037-9,9      s4.037,9.001,9,9.001c0.553,0,1,0.447,1,1S11.553,47.501,11,47.501z"></path></g><g><path d="M12.999,63.5c-0.497,0-0.928-0.37-0.991-0.876l-2-15.999c-0.068-0.548,0.32-1.048,0.868-1.116      c0.551-0.062,1.048,0.32,1.116,0.868l2,15.999c0.068,0.548-0.32,1.048-0.868,1.116C13.082,63.497,13.04,63.5,12.999,63.5z"></path></g><g><path d="M20.999,63.5c-0.497,0-0.928-0.37-0.991-0.876l-2-15.999c-0.068-0.548,0.32-1.048,0.868-1.116      c0.551-0.062,1.048,0.32,1.116,0.868l2,15.999c0.068,0.548-0.32,1.048-0.868,1.116C21.082,63.497,21.04,63.5,20.999,63.5z"></path></g><g><path d="M22,63.5h-9c-0.553,0-1-0.447-1-1s0.447-1,1-1h9c0.553,0,1,0.447,1,1S22.553,63.5,22,63.5z"></path></g><g><path d="M24,50.5c-0.419,0-0.809-0.265-0.948-0.684l-1-2.999c-0.175-0.524,0.108-1.091,0.632-1.265      c0.529-0.176,1.09,0.108,1.265,0.632l1,2.999c0.175,0.524-0.108,1.091-0.632,1.265C24.211,50.483,24.104,50.5,24,50.5z"></path></g><g><path d="M24,50.5h-4.625c-0.553,0-1-0.447-1-1s0.447-1,1-1H24c0.553,0,1,0.447,1,1S24.553,50.5,24,50.5z"></path></g><g><path d="M37,39.5c-0.553,0-1-0.447-1-1s0.447-1,1-1c0.552,0,1-0.448,1-1s-0.448-1-1-1c-0.553,0-1-0.447-1-1s0.447-1,1-1      c1.654,0,3,1.346,3,3S38.654,39.5,37,39.5z"></path></g><g><path d="M37,39.5h-4c-0.553,0-1-0.447-1-1s0.447-1,1-1h4c0.553,0,1,0.447,1,1S37.553,39.5,37,39.5z"></path></g><g><path d="M37,35.5h-4c-0.553,0-1-0.447-1-1s0.447-1,1-1h4c0.553,0,1,0.447,1,1S37.553,35.5,37,35.5z"></path></g><g><path d="M6,37.5H1c-0.553,0-1-0.447-1-1s0.447-1,1-1h5c0.553,0,1,0.447,1,1S6.553,37.5,6,37.5z"></path></g><g><path d="M6,32.5H2.339c-0.553,0-1-0.447-1-1s0.447-1,1-1H6c0.553,0,1,0.447,1,1S6.553,32.5,6,32.5z"></path></g><g><path d="M6,42.5H2.339c-0.553,0-1-0.447-1-1s0.447-1,1-1H6c0.553,0,1,0.447,1,1S6.553,42.5,6,42.5z"></path></g></g></g></g></svg>