<svg fill="#FFFFFF" xmlns="http://www.w3.org/2000/svg" xmlns:xlink="http://www.w3.org/1999/xlink" version="1.1" x="0px" y="0px" viewBox="0 0 100 100" enable-background="new 0 0 100 100" xml:space="preserve"><symbol viewBox="-9.858 -9.858 19.716 19.716"><path fill="#FFFFFF" stroke="#FFFFFF" stroke-width="2.5699" stroke-miterlimit="10" d="M8.573,0c0-4.735-3.838-8.573-8.573-8.573   S-8.573-4.735-8.573,0c0,4.735,3.838,8.573,8.573,8.573S8.573,4.735,8.573,0z"></path><path fill="#FFFFFF" stroke="#FFFFFF" stroke-width="2.5699" stroke-miterlimit="10" d="M2.858,0c0-1.578-1.279-2.858-2.858-2.858   c-1.578,0-2.858,1.279-2.858,2.858c0,1.578,1.279,2.858,2.858,2.858C1.578,2.858,2.858,1.578,2.858,0z"></path></symbol><symbol viewBox="-5.525 -16.49 11.051 32.981"><path fill="#FFFFFF" stroke="#FFFFFF" stroke-width="2" stroke-miterlimit="10" d="M4.526-15.49h-9.051v30.981h1.559   c4.138,0,7.492-3.354,7.492-7.492V-15.49z"></path></symbol><g display="none"><rect x="-1082.374" y="-293.377" display="inline" fill="#FFFFFF" width="1328.934" height="1233.377"></rect></g><g><path d="M63.873,47.792c-0.435,0.846-1.001,1.617-1.676,2.287l-0.062,0.062c-0.675,0.67-1.452,1.229-2.301,1.658l-0.073,0.037   c-0.849,0.428-1.761,0.721-2.701,0.866l-1.511,0.233l-0.08-0.013c-1.423-2.991-3.748-5.439-6.736-6.998   c-3.04-1.588-6.371-2.036-9.523-1.529l-0.063-0.066l-0.666-1.373c-0.415-0.856-0.693-1.772-0.823-2.715l-0.011-0.081   c-0.13-0.942-0.111-1.899,0.056-2.836l0.016-0.089c0.167-0.936,0.481-1.84,0.929-2.678l2.58-4.826L12.657,14.456l-1.067,1.997   c-0.942,1.763-1.34,3.8-0.949,5.76c0.449,2.244,1.742,4.139,3.601,5.358l-7.469-1.335l-0.398,2.225   c-0.352,1.97-0.101,4.033,0.878,5.777c1.121,1.996,2.938,3.398,5.083,3.982l-7.519,1.039l0.312,2.262   c0.255,1.847,1.029,3.615,2.345,4.937c1.619,1.626,3.733,2.492,5.931,2.492c0.146,0,0.293-0.023,0.44-0.03l-6.866,3.329   l0.986,2.031c0.841,1.733,2.179,3.217,3.908,4.065c1.191,0.584,2.456,0.872,3.715,0.872c1.001,0,1.995-0.191,2.947-0.554   l-5.483,5.27l1.734,1.803c1.543,1.605,3.662,2.537,5.888,2.569c0.028,0,0.055,0.001,0.083,0.001   c2.185,0.012,4.287-0.844,5.863-2.358l0.203-0.195c0.665,7.558,2.49,15.087,2.619,15.609l0.252,1.027l0.986-0.38   c0.5-0.193,7.675-2.982,14.238-6.738l-0.017,0.104c-0.293,1.801-0.082,3.675,0.753,5.297c1.25,2.43,3.488,4.044,6.111,4.47   l2.479,0.403l1.218-7.492c0.467,1.893,1.569,3.549,3.162,4.716c1.445,1.06,3.153,1.615,4.913,1.615   c0.428,0,0.857-0.033,1.288-0.099l2.484-0.383l-1.157-7.503c1.029,1.656,2.59,2.889,4.464,3.507   c0.857,0.283,1.739,0.423,2.618,0.423c1.287,0,2.565-0.301,3.748-0.898l2.244-1.132l-3.42-6.78   c1.545,1.301,3.453,1.956,5.365,1.956c2.124,0,4.249-0.805,5.873-2.415l1.786-1.77l-5.359-5.403   c1.005,0.411,2.063,0.629,3.131,0.629c1.231,0,2.472-0.276,3.645-0.834c1.695-0.806,3.025-2.225,3.884-3.894l1.047-2.035   L66.377,42.925L63.873,47.792z M41.645,46.042c2.103,0,4.236,0.492,6.226,1.531c2.799,1.461,4.952,3.799,6.17,6.667l-1.99-1.044   c-1.514-0.794-3.252-0.95-4.895-0.438c-1.213,0.378-2.257,1.089-3.043,2.042c0.813-2.863-0.458-6.008-3.196-7.445l-1.98-1.039   C39.825,46.134,40.732,46.042,41.645,46.042z M12.725,22.457c-0.494-1.63-0.324-3.355,0.479-4.857l0.259-0.484l25.104,13.421   l-3.266,6.107L15.821,26.229C14.319,25.426,13.219,24.086,12.725,22.457z M9.31,33.824c-0.974-1.397-1.345-3.09-1.045-4.767   l0.097-0.541l11.37,2.032l15.687,8.386l-0.252,1.408L13.42,36.456C11.744,36.156,10.284,35.221,9.31,33.824z M9.576,45.691   c-1.357-1.028-2.234-2.524-2.468-4.211l-0.074-0.544l11.443-1.581l17.506,3.129l0.196,1.417l-1.461,0.202l-4.364-2.289l-0.729,1.39   l2.419,1.269l-17.748,2.452C12.611,47.157,10.933,46.719,9.576,45.691z M26.649,63.197l-1.42,1.365   c-1.229,1.18-2.842,1.8-4.545,1.778c-1.703-0.034-3.291-0.729-4.472-1.957l-0.381-0.396l8.328-8.005l3.084-1.495   C26.614,56.872,26.491,59.96,26.649,63.197z M18.366,56.609c-1.532,0.742-3.261,0.846-4.872,0.287   c-1.609-0.558-2.904-1.71-3.647-3.243l-0.24-0.494L20,48.119l14.084-1.946c-2.287,1.284-4.258,3.17-5.672,5.564L18.366,56.609z    M34.025,50.211c0.438-0.136,0.885-0.204,1.33-0.204c0.711,0,1.416,0.172,2.063,0.511c2.173,1.141,3.014,3.837,1.873,6.01   c-0.552,1.053-1.481,1.828-2.616,2.182c-1.137,0.354-2.341,0.244-3.394-0.308s-1.828-1.481-2.182-2.616   c-0.354-1.135-0.244-2.34,0.309-3.394C31.96,51.34,32.889,50.565,34.025,50.211z M52.624,83.29l-0.542-0.088   c-1.681-0.273-3.155-1.185-4.15-2.567c-0.996-1.382-1.394-3.069-1.12-4.75l0.314-1.931c2.749-1.718,5.219-3.582,6.828-5.461   l0.524,3.396L52.624,83.29z M47.3,65.758c-2.173-1.14-3.014-3.836-1.873-6.01c0.795-1.516,2.347-2.383,3.95-2.383   c0.696,0,1.402,0.164,2.061,0.509c2.173,1.141,3.014,3.837,1.873,6.01S49.474,66.896,47.3,65.758z M52.167,56.483   c-2.935-1.54-6.585-0.405-8.13,2.535c-1.542,2.94-0.404,6.587,2.535,8.129c0.891,0.467,1.846,0.688,2.787,0.688   c1.381,0,2.73-0.479,3.807-1.353c-3.82,5.629-18.225,11.787-22.158,13.391c-0.936-4.155-4.136-19.57-1.661-25.892   c-0.06,0.756,0.022,1.525,0.254,2.271c0.479,1.536,1.526,2.793,2.951,3.54c0.875,0.459,1.828,0.692,2.79,0.692   c0.602,0,1.207-0.091,1.799-0.276c1.535-0.479,2.792-1.526,3.54-2.951c1.542-2.94,0.405-6.587-2.535-8.13   c-1.415-0.743-3.035-0.892-4.565-0.422c0.986-0.73,2.062-1.317,3.195-1.753l3.412,1.79c2.37,1.244,3.287,4.185,2.043,6.555   l1.391,0.729c0,0,0,0,0,0l1.144,0.6c0.599-1.143,1.613-1.985,2.855-2.373c1.241-0.388,2.556-0.271,3.699,0.329l3.411,1.789   c0.291,1.2,0.414,2.417,0.374,3.627C54.644,58.539,53.629,57.251,52.167,56.483z M64.529,82.342   c-1.682,0.259-3.367-0.152-4.741-1.159s-2.273-2.488-2.533-4.172l-1.702-11.036c1.143-2.469,1.61-5.144,1.365-7.809l6.394,12.675   l1.761,11.417L64.529,82.342z M76.591,77.428l-0.49,0.247c-1.521,0.768-3.251,0.896-4.867,0.363   c-1.618-0.533-2.932-1.664-3.698-3.185l-8.069-15.997l2.417,1.268l0.729-1.39l-4.361-2.288l-0.664-1.317l1.277-0.644l12.524,12.627   L76.591,77.428z M86.055,69.276l-0.39,0.387c-1.203,1.193-2.797,1.849-4.49,1.849c-0.009,0-0.018,0-0.026,0   c-1.703-0.007-3.302-0.677-4.502-1.886L61.09,53.943l1.016-1.008l15.814,8.14L86.055,69.276z M92.537,58.6l-0.251,0.488   c-0.78,1.515-2.103,2.635-3.725,3.155c-1.624,0.519-3.349,0.377-4.864-0.403l-19.641-10.11l3.169-6.158L92.537,58.6z"></path><path d="M34.174,56.701c0.374,0.196,0.775,0.29,1.171,0.29c0.911,0,1.794-0.493,2.246-1.354v0c0.646-1.235,0.169-2.768-1.066-3.416   c-1.236-0.649-2.767-0.171-3.416,1.065c-0.313,0.598-0.376,1.283-0.175,1.929C33.135,55.859,33.576,56.387,34.174,56.701z    M34.5,54.015c0.171-0.327,0.507-0.514,0.853-0.514c0.149,0,0.302,0.035,0.443,0.109c0.47,0.247,0.651,0.829,0.405,1.298   c-0.247,0.468-0.828,0.648-1.298,0.404c-0.227-0.119-0.394-0.32-0.471-0.565C34.356,54.502,34.379,54.242,34.5,54.015z"></path><path d="M50.544,59.575c-0.597-0.313-1.28-0.376-1.929-0.175c-0.646,0.201-1.174,0.642-1.487,1.24s-0.376,1.283-0.175,1.929   c0.201,0.645,0.642,1.173,1.239,1.487c0.368,0.193,0.77,0.292,1.174,0.292c0.253,0,0.507-0.039,0.756-0.116   c0.646-0.201,1.173-0.641,1.487-1.24C52.257,61.756,51.781,60.224,50.544,59.575z M50.219,62.262L50.219,62.262   c-0.119,0.228-0.319,0.395-0.564,0.471s-0.505,0.052-0.732-0.066c-0.227-0.119-0.394-0.32-0.471-0.565   c-0.076-0.245-0.053-0.505,0.067-0.732c0.119-0.227,0.319-0.394,0.564-0.47c0.095-0.03,0.191-0.044,0.287-0.044   c0.153,0,0.306,0.037,0.444,0.11C50.285,61.211,50.465,61.793,50.219,62.262z"></path><path d="M35.907,61.427l0.385,8.276l7.027-4.388l-1.872-5.44L35.907,61.427z M37.735,66.952l-0.201-4.35l2.911-0.815l0.983,2.859   L37.735,66.952z"></path></g></svg>