<svg fill="#FFFFFF" xmlns="http://www.w3.org/2000/svg" xmlns:xlink="http://www.w3.org/1999/xlink" xml:space="preserve" style="shape-rendering:geometricPrecision;text-rendering:geometricPrecision;image-rendering:optimizeQuality;" viewBox="0 0 4.6378 6.5022" x="0px" y="0px" fill-rule="evenodd" clip-rule="evenodd"><defs><style type="text/css">
   
    .fil1 {fill:#FFFFFF}
    .fil0 {fill:#FFFFFF;fill-rule:nonzero}
   
  </style></defs><g><path class="fil0" d="M0.6421 2.3188c0,-0.8684 0.6661,-1.5961 1.5317,-1.6705 0.0763,-0.0113 0.1455,0.0483 0.1455,0.1258 0,0.0679 -0.0535,0.1235 -0.1206,0.1269 -0.7279,0.0607 -1.2994,0.6688 -1.3025,1.4117 0.0013,0.0727 -0.0533,0.1325 -0.127,0.1325 -0.0699,0 -0.1267,-0.0566 -0.1271,-0.1264z"></path><path class="fil1" d="M1.2037 4.947c-0.0715,-0.3438 -0.277,-0.601 -0.4941,-0.8724 -0.3416,-0.4272 -0.7096,-0.8874 -0.7096,-1.7559 0,-1.2802 1.0388,-2.3187 2.3189,-2.3187 1.2801,0 2.3189,1.0385 2.3189,2.3187 0,0.8685 -0.368,1.3287 -0.7096,1.7559 -0.2171,0.2714 -0.4228,0.5286 -0.4942,0.8725 0.1164,0.0623 0.1917,0.1841 0.1917,0.3178 0,0.1638 -0.1122,0.3062 -0.2687,0.3482 0,0.2377 -0.1439,0.4359 -0.3848,0.4721 -0.0261,0.2364 -0.2276,0.417 -0.4658,0.417l-0.3749 0c-0.2383,0 -0.4396,-0.1806 -0.4657,-0.417 -0.2417,-0.0361 -0.3851,-0.2352 -0.3851,-0.4721 -0.1567,-0.0415 -0.2686,-0.1847 -0.2686,-0.3482 0,-0.1342 0.0751,-0.2554 0.1916,-0.3179zm1.3599 -1.5685l0 1.5263 -0.4895 0 0 -1.5263c0,-0.0334 -0.0136,-0.0663 -0.0371,-0.0898l-0.3139 -0.3139c-0.0495,-0.0495 -0.1302,-0.0495 -0.1797,-0.0001 -0.0494,0.0495 -0.0494,0.1302 0.0001,0.1797l0.2766 0.2766 0 1.4738 -0.3657 0c-0.0805,-0.4041 -0.3075,-0.6882 -0.5474,-0.988 -0.3143,-0.393 -0.653,-0.8166 -0.653,-1.5981 0,-1.1406 0.9243,-2.0647 2.0649,-2.0647 1.1406,0 2.0649,0.9241 2.0649,2.0647 0,0.7815 -0.3387,1.2051 -0.653,1.5981 -0.2399,0.2998 -0.4669,0.5839 -0.5474,0.988l-0.3658 0 0 -1.4738 0.2766 -0.2766c0.0495,-0.0495 0.0495,-0.1302 0.0001,-0.1797 -0.0495,-0.0494 -0.1302,-0.0494 -0.1797,0.0001l-0.3139 0.3139c-0.0235,0.0235 -0.0371,0.0564 -0.0371,0.0898zm-0.8775 1.9925c0.0699,0 0.127,0.0571 0.127,0.127 0,0.0699 -0.0571,0.127 -0.127,0.127l-0.1514 0c0,0.1147 0.076,0.2095 0.1951,0.2111 0.3927,0 0.7854,0 1.1781,0 0.119,-0.0016 0.1951,-0.0962 0.1951,-0.2111 -0.2235,0 -0.4469,0 -0.6704,0 -0.0699,0 -0.127,-0.0571 -0.127,-0.127 0,-0.0699 0.0571,-0.127 0.127,-0.127 0.2777,0 0.5553,0 0.833,0 0.0587,0 0.1061,-0.0474 0.1061,-0.1061 0,-0.0578 -0.0458,-0.1045 -0.1034,-0.1061 -0.6329,0 -1.2659,0 -1.8988,0 -0.0577,0.0017 -0.1034,0.0482 -0.1034,0.1061 0,0.0588 0.0473,0.1061 0.1061,0.1061 0.1046,0 0.2093,0 0.3139,0zm1.0273 0.7191l-0.7889 0c0.0257,0.0925 0.1104,0.1581 0.207,0.1581l0.3749 0c0.0966,0 0.1813,-0.0656 0.207,-0.1581z"></path></g></svg>