<svg fill="#FFFFFF" xmlns="http://www.w3.org/2000/svg" xmlns:xlink="http://www.w3.org/1999/xlink" version="1.1" x="0px" y="0px" viewBox="0 0 100 100" style="enable-background:new 0 0 100 100;" xml:space="preserve"><g><path d="M89.85,21.594V21.17c0-2.233-1.821-4.05-4.06-4.05H54.93c-1.91,0-3.713,0.869-4.924,2.309   c-1.202-1.438-2.998-2.309-4.935-2.309H14.21c-2.238,0-4.06,1.816-4.06,4.05v0.424C7.205,22.276,5,24.917,5,28.067v43.048   c0,3.667,2.983,6.65,6.648,6.65l30.768,0.029c0.346,0,0.657,0.195,0.741,0.464c0.862,2.766,3.396,4.624,6.306,4.624h1.074   c2.908,0,5.444-1.868,6.311-4.65c0.083-0.269,0.395-0.464,0.739-0.464l30.764-0.003c3.666,0,6.649-2.983,6.649-6.65V28.067   C95,24.917,92.795,22.276,89.85,21.594z M13.778,21.115c0-0.417,0.22-0.769,0.536-0.995c0,0,30.747,0,30.756,0   c1.982,0,3.506,1.73,3.695,3.616c0.268,2.684-0.02,5.542-0.023,8.241c-0.007,5.745,0.008,11.49,0.008,17.235   c0,6.605,0,13.211,0,19.816c0,0.369,0,0.738,0,1.106c-0.855-0.674-1.939-1.217-3.245-1.285H15.023   c-0.687,0-1.245-0.559-1.245-1.245V21.115z M51.378,23.754c0.317-1.933,1.182-3.634,3.552-3.634c0,0,30.756,0,30.756,0   c0.316,0.226,0.536,0.578,0.536,0.995v46.489c0,0.687-0.559,1.245-1.245,1.245l-30.969,0.001c-1.012,0.045-1.958,0.601-2.758,1.295   c0-4.503,0-9.005,0-13.508c0-9.846-0.087-19.694-0.059-29.538C51.194,26.101,51.192,24.887,51.378,23.754z M92,71.115   c0,2.013-1.637,3.65-3.649,3.65l-30.766,0.003c-1.65,0.002-3.132,1.06-3.603,2.572c-1.073,3.449-6.882,3.489-7.962,0.025   c-0.472-1.513-1.952-2.569-3.602-2.571l-30.77-0.029C9.637,74.766,8,73.128,8,71.115V28.067c0-1.886,1.442-3.424,3.278-3.613v43.15   c0,2.065,1.68,3.745,3.745,3.745l30.416-0.002c2.085,0.109,3.424,2.778,3.438,2.806c0.2,0.41,0.609,0.679,1.065,0.7   c0.02,0.001,0.039,0.001,0.058,0.001c0.437,0,0.843-0.229,1.07-0.604c0.72-1.191,2.179-2.863,2.992-2.9h30.914   c2.065,0,3.745-1.68,3.745-3.745v-43.15C90.558,24.644,92,26.182,92,28.067V71.115z"></path><path d="M19.448,28.265h22.757c0.553,0,1-0.447,1-1s-0.447-1-1-1H19.448c-0.553,0-1,0.447-1,1S18.896,28.265,19.448,28.265z"></path><path d="M19.448,36.944h22.757c0.553,0,1-0.447,1-1s-0.447-1-1-1H19.448c-0.553,0-1,0.447-1,1S18.896,36.944,19.448,36.944z"></path><path d="M19.448,45.624h22.757c0.553,0,1-0.447,1-1s-0.447-1-1-1H19.448c-0.553,0-1,0.447-1,1S18.896,45.624,19.448,45.624z"></path><path d="M19.448,54.304h22.757c0.553,0,1-0.447,1-1s-0.447-1-1-1H19.448c-0.553,0-1,0.447-1,1S18.896,54.304,19.448,54.304z"></path><path d="M19.448,62.984h22.757c0.553,0,1-0.447,1-1s-0.447-1-1-1H19.448c-0.553,0-1,0.447-1,1S18.896,62.984,19.448,62.984z"></path><path d="M57.79,28.267h22.76c0.553,0,1-0.447,1-1s-0.447-1-1-1H57.79c-0.553,0-1,0.447-1,1S57.237,28.267,57.79,28.267z"></path><path d="M57.79,36.946h22.76c0.553,0,1-0.447,1-1s-0.447-1-1-1H57.79c-0.553,0-1,0.447-1,1S57.237,36.946,57.79,36.946z"></path><path d="M80.552,43.624H57.795c-0.553,0-1,0.447-1,1s0.447,1,1,1h22.757c0.553,0,1-0.447,1-1S81.104,43.624,80.552,43.624z"></path><path d="M80.552,52.304H57.795c-0.553,0-1,0.447-1,1s0.447,1,1,1h22.757c0.553,0,1-0.447,1-1S81.104,52.304,80.552,52.304z"></path><path d="M80.552,60.984H57.795c-0.553,0-1,0.447-1,1s0.447,1,1,1h22.757c0.553,0,1-0.447,1-1S81.104,60.984,80.552,60.984z"></path></g></svg>