<svg fill="#FFFFFF" xmlns="http://www.w3.org/2000/svg" xmlns:xlink="http://www.w3.org/1999/xlink" version="1.1" x="0px" y="0px" viewBox="0 0 45 45" enable-background="new 0 0 45 45" xml:space="preserve"><path d="M32.596,16.426V5.565H12.406v10.86H2.604v23.009h39.795V16.426H32.596z M12.406,38.435H3.604V17.426h8.803V38.435z   M27.67,38.435H23V26.152h-1v12.282h-4.67V23.961h10.34V38.435z M31.596,38.435H28.67V22.961H16.33v15.474h-2.924V6.565h18.189  V38.435z M41.398,38.435h-8.803V17.426h8.803V38.435z"></path><path d="M39.922,20.27H34.07v6.383h5.852V20.27z M38.922,25.652H35.07V21.27h3.852V25.652z"></path><path d="M39.922,29.208H34.07v6.383h5.852V29.208z M38.922,34.591H35.07v-4.383h3.852V34.591z"></path><path d="M10.932,20.27H5.078v6.383h5.854V20.27z M9.932,25.652H6.078V21.27h3.854V25.652z"></path><path d="M10.932,29.208H5.078v6.383h5.854V29.208z M9.932,34.591H6.078v-4.383h3.854V34.591z"></path><path d="M20.414,19.828h4.172v-3.531h3.533v-4.172h-3.533V8.593h-4.172v3.532h-3.531v4.172h3.531V19.828z M17.883,15.297v-2.172  h3.531V9.593h2.172v3.532h3.533v2.172h-3.533v3.531h-2.172v-3.531H17.883z"></path></svg>