<svg fill="#FFFFFF" xmlns="http://www.w3.org/2000/svg" xmlns:xlink="http://www.w3.org/1999/xlink" version="1.1" x="0px" y="0px" viewBox="0 0 70 70" style="enable-background:new 0 0 70 70;" xml:space="preserve"><style type="text/css">
	.st0{fill:none;stroke:#FFFFFF;stroke-width:2;stroke-linecap:round;stroke-linejoin:round;stroke-miterlimit:10;}
	.st1{fill:none;stroke:#FFFFFF;stroke-width:2;}
	.st2{fill:none;stroke:#FFFFFF;stroke-width:2;stroke-linecap:round;}
	.st3{fill:none;}
	.st4{fill:none;stroke:#FFFFFF;stroke-width:2;stroke-linecap:round;stroke-linejoin:round;}
</style><g><g><path d="M35,40.0002441c-0.1235352,0-0.2475586-0.0224609-0.3647461-0.0683594l-22.9995117-9    C11.2524414,30.7814941,11,30.4123535,11,30.0002441c0-0.4111328,0.2524414-0.78125,0.6357422-0.9316406l23-9    c0.234375-0.0917969,0.4941406-0.0917969,0.7285156,0l23,9C58.7475586,29.2189941,59,29.5891113,59,30.0002441    c0,0.4121094-0.2524414,0.78125-0.6357422,0.9316406l-22.9995117,9C35.2475586,39.9777832,35.1235352,40.0002441,35,40.0002441z     M14.7451172,30.0002441L35,37.9260254l20.2548828-7.9257813L35,22.0744629L14.7451172,30.0002441z"></path></g><g><path d="M21,50.0002441c-0.1899414,0-0.3789063-0.0537109-0.543457-0.1601563C20.171875,49.6555176,20,49.3391113,20,49.0002441    V33.5197754c0-0.3300781,0.1630859-0.6396484,0.4365234-0.8261719c0.2729492-0.1865234,0.6196289-0.2255859,0.9282227-0.1054688    L35,37.9260254l13.6352539-5.3378906c0.3085938-0.1201172,0.6557617-0.0810547,0.9282227,0.1054688    C49.8369141,32.880127,50,33.1896973,50,33.5197754v15.4804688c0,0.3388672-0.171875,0.6552734-0.4570313,0.8398438    c-0.284668,0.1835938-0.6445313,0.2099609-0.9526367,0.0722656c-4.2387695-1.9042969-8.9379883-2.9111328-13.5898438-2.9111328    c-0.0014648,0-0.0029297,0-0.0048828,0c-4.6455078,0-9.34375,1.0068359-13.5859375,2.9111328    C21.2788086,49.9709473,21.1391602,50.0002441,21,50.0002441z M22,34.9855957v12.5068359    c4.1176758-1.6328125,8.5786133-2.4912109,12.9956055-2.4912109c0.0014648,0,0.0039063,0,0.0053711,0    c4.421875,0,8.8837891,0.8574219,12.9990234,2.4912109V34.9855957l-12.6352539,4.9462891    c-0.234375,0.0917969-0.4951172,0.0917969-0.7294922,0L22,34.9855957z"></path></g><g><path d="M53.9956055,47.0002441c-0.5522461,0-1-0.4472656-1-1V31.5666504c0-0.5527344,0.4477539-1,1-1s1,0.4472656,1,1v14.4335938    C54.9956055,46.5529785,54.5478516,47.0002441,53.9956055,47.0002441z"></path></g><g><path d="M53.996582,32.5666504c-0.0273438,0-0.0551758-0.0009766-0.0830078-0.0029297l-19-1.5664063    c-0.5507813-0.0458984-0.9599609-0.5292969-0.9145508-1.0791016c0.0449219-0.5498047,0.5263672-0.9560547,1.0786133-0.9150391    l19,1.5664063c0.5507813,0.0458984,0.9599609,0.5292969,0.9145508,1.0791016    C54.9492188,32.1711426,54.5117188,32.5666504,53.996582,32.5666504z"></path></g><g><path d="M53.9956055,48.0002441c-1.1030273,0-2-0.8974609-2-2s0.8969727-2,2-2s2,0.8974609,2,2    S55.0986328,48.0002441,53.9956055,48.0002441z M53.9956055,45.9992676v0.0009766V45.9992676z"></path></g></g></svg>